<svg width="181" height="48" viewBox="0 0 181 48" fill="none" xmlns="http://www.w3.org/2000/svg">
<rect x="1" y="1" width="45" height="45" stroke="white" stroke-width="2"/>
<g clip-path="url(#clip0_2179_20303)">
<path d="M30.8728 24.0846L30.8423 23.9563C31.5017 23.0215 32.1204 22.0609 32.6984 21.0746C33.9195 18.9804 35.3257 16.9677 36.6242 14.9142C36.7035 14.7921 36.7809 14.668 36.8582 14.5438H32.446C32.153 14.9671 30.8179 16.9371 29.3424 19.1005C28.7319 17.5538 27.9687 16.0803 27.1038 15.4108C26.478 14.7568 25.7038 14.2633 24.8468 13.9719C19.4883 12.1729 9.93531 18.1033 9.60359 26.1543C9.60359 26.2194 9.60359 26.2825 9.60359 26.3578C9.3899 34.6876 17.85 34.2704 20.0357 33.4808C22.7893 32.4836 25.1236 30.595 27.1424 28.4662C27.3297 28.2627 27.5149 28.0714 27.696 27.872L27.7184 27.9371C28.8255 31.1689 30.5859 33.4075 34.0945 33.3485C36.8094 33.3017 37.8534 31.3134 37.8534 31.3134C33.4677 32.2597 32.1204 28.4214 30.8728 24.0846ZM23.6237 27.2065C22.5308 28.5456 21.0533 30.2083 19.3173 30.8697C18.8969 31.035 18.4534 31.1339 18.0026 31.1628C16.6391 31.2401 11.5668 30.8677 13.201 24.3837C13.7827 22.0272 15.0072 19.8783 16.738 18.1765C18.9584 16.0417 22.3639 15.5492 23.9473 16.4996C25.205 17.2567 25.8969 20.2381 26.5502 23.2156C25.6161 24.5933 24.6575 25.9325 23.6237 27.2065Z" fill="url(#paint0_linear_2179_20303)"/>
</g>
<path d="M155.629 25.5937C155.629 23.7605 155.998 22.1347 156.737 20.7161C157.498 19.2976 158.516 18.2064 159.792 17.4426C161.09 16.6788 162.534 16.2969 164.123 16.2969C165.511 16.2969 166.72 16.5697 167.749 17.1153C168.801 17.6608 169.641 18.3483 170.267 19.1776V16.5915H175.001V34.7268H170.267V32.0752C169.663 32.9264 168.824 33.6356 167.749 34.203C166.697 34.7486 165.477 35.0214 164.09 35.0214C162.523 35.0214 161.09 34.6286 159.792 33.843C158.516 33.0573 157.498 31.9552 156.737 30.5367C155.998 29.0963 155.629 27.4487 155.629 25.5937ZM170.267 25.6591C170.267 24.5461 170.044 23.5968 169.596 22.8112C169.148 22.0037 168.544 21.3927 167.783 20.978C167.022 20.5415 166.205 20.3233 165.332 20.3233C164.459 20.3233 163.653 20.5306 162.915 20.9453C162.176 21.3599 161.572 21.971 161.102 22.7784C160.654 23.5641 160.43 24.5025 160.43 25.5937C160.43 26.6848 160.654 27.6451 161.102 28.4744C161.572 29.2818 162.176 29.9038 162.915 30.3403C163.676 30.7768 164.481 30.995 165.332 30.995C166.205 30.995 167.022 30.7877 167.783 30.373C168.544 29.9366 169.148 29.3255 169.596 28.5398C170.044 27.7324 170.267 26.7721 170.267 25.6591Z" fill="white"/>
<path d="M145.116 16.3269C146.526 16.3269 147.779 16.6324 148.876 17.2435C149.973 17.8327 150.824 18.7165 151.428 19.895C152.055 21.0517 152.368 22.4484 152.368 24.0851V34.7241H147.668V24.7071C147.668 23.2667 147.298 22.1646 146.56 21.4008C145.821 20.6152 144.814 20.2224 143.538 20.2224C142.24 20.2224 141.21 20.6152 140.449 21.4008C139.71 22.1646 139.341 23.2667 139.341 24.7071V34.7241H134.641V10.5H139.341V18.8475C139.945 18.0618 140.751 17.4508 141.758 17.0143C142.766 16.556 143.885 16.3269 145.116 16.3269Z" fill="white"/>
<path d="M116.585 19.2103C117.19 18.381 118.018 17.6936 119.07 17.148C120.144 16.5806 121.364 16.2969 122.729 16.2969C124.319 16.2969 125.751 16.6788 127.027 17.4426C128.325 18.2064 129.344 19.2976 130.082 20.7161C130.843 22.1128 131.224 23.7387 131.224 25.5937C131.224 27.4487 130.843 29.0963 130.082 30.5367C129.344 31.9552 128.325 33.0573 127.027 33.843C125.751 34.6286 124.319 35.0214 122.729 35.0214C121.364 35.0214 120.155 34.7486 119.103 34.203C118.074 33.6575 117.234 32.97 116.585 32.1407V43.3689H111.885V16.5915H116.585V19.2103ZM126.423 25.5937C126.423 24.5025 126.188 23.5641 125.717 22.7784C125.27 21.971 124.665 21.3599 123.904 20.9453C123.166 20.5306 122.36 20.3233 121.487 20.3233C120.637 20.3233 119.831 20.5415 119.07 20.978C118.331 21.3927 117.727 22.0037 117.257 22.8112C116.809 23.6187 116.585 24.568 116.585 25.6591C116.585 26.7503 116.809 27.6996 117.257 28.5071C117.727 29.3146 118.331 29.9366 119.07 30.373C119.831 30.7877 120.637 30.995 121.487 30.995C122.36 30.995 123.166 30.7768 123.904 30.3403C124.665 29.9038 125.27 29.2818 125.717 28.4744C126.188 27.6669 126.423 26.7067 126.423 25.5937Z" fill="white"/>
<path d="M107.241 10.5V34.7241H102.541V10.5H107.241Z" fill="white"/>
<path d="M92.8781 30.3719H83.5443L81.9999 34.7257H77.0645L85.4917 11.8438H90.9643L99.3915 34.7257H94.4225L92.8781 30.3719ZM91.6022 26.7055L88.2112 17.1469L84.8202 26.7055H91.6022Z" fill="white"/>
<path d="M73.2356 21.1016V24.9643H59V21.1016H73.2356Z" fill="white"/>
<defs>
<linearGradient id="paint0_linear_2179_20303" x1="11.1187" y1="28.3044" x2="41.694" y2="24.514" gradientUnits="userSpaceOnUse">
<stop stop-color="white" stop-opacity="0"/>
<stop offset="0.792708" stop-color="white"/>
<stop offset="0.990625" stop-color="white"/>
</linearGradient>
<clipPath id="clip0_2179_20303">
<rect width="28.2539" height="20.2151" fill="white" transform="translate(9.60156 13.6484)"/>
</clipPath>
</defs>
</svg>
